<?xml version="1.0" encoding="UTF-8"?>
<!-- Generated by Pixelmator Pro 3.7 -->
<svg width="833" height="841" viewBox="824 1332 833 841" xmlns="http://www.w3.org/2000/svg">
    <g id="Layer-1">
        <g id="Group">
            <path id="Path" fill="#FFFFFF" stroke="none" d="M 1506.228271 1914.804077 C 1506.187134 1953.456543 1487.168579 1987.65686 1457.994873 2008.603638 C 1457.974243 2008.644775 1457.953735 2008.644775 1457.933228 2008.665283 C 1438.976318 2022.267212 1415.731445 2030.268799 1390.619629 2030.268799 L 1136.343018 2030.268799 C 1032.77771 2030.268799 942.465759 1973.521484 894.806885 1889.425293 C 874.41394 1853.440552 861.816772 1812.428833 859.35498 1768.72937 C 859.046936 1763.477051 858.903625 1758.16333 858.903625 1752.829346 C 858.903625 1750.593018 858.924194 1748.357056 858.985779 1746.141113 C 858.883118 1756.871094 859.62146 1766.903687 861.098572 1776.299683 C 866.145386 1808.181763 879.788879 1832.80127 898.23291 1851.778564 C 898.253418 1851.799194 898.273987 1851.799194 898.273987 1851.81958 C 957.27832 1912.505981 1065.213867 1915.624512 1097.587891 1915.13269 C 1109.097534 1914.947754 1120.627319 1914.804077 1132.137207 1914.804077 L 1506.228271 1914.804077 Z"/>
            <path id="path1" fill="#FFFFFF" stroke="none" d="M 1157.406006 1762.440918 C 1157.406006 1794.317627 1131.564819 1820.158936 1099.687988 1820.158936 C 1067.811157 1820.158936 1041.969971 1794.317627 1041.969971 1762.440918 C 1041.969971 1730.564087 1067.811157 1704.7229 1099.687988 1704.7229 C 1131.564819 1704.7229 1157.406006 1730.564087 1157.406006 1762.440918 Z"/>
            <path id="path2" fill="#FFFFFF" stroke="none" d="M 1304.274536 1762.440918 C 1304.274536 1794.317627 1278.43335 1820.158936 1246.556519 1820.158936 C 1214.679688 1820.158936 1188.838501 1794.317627 1188.838501 1762.440918 C 1188.838501 1730.564087 1214.679688 1704.7229 1246.556519 1704.7229 C 1278.43335 1704.7229 1304.274536 1730.564087 1304.274536 1762.440918 Z"/>
            <path id="path3" fill="#FFFFFF" stroke="none" d="M 1451.143066 1762.440918 C 1451.143066 1794.317627 1425.301758 1820.158936 1393.425049 1820.158936 C 1361.548218 1820.158936 1335.706909 1794.317627 1335.706909 1762.440918 C 1335.706909 1730.564087 1361.548218 1704.7229 1393.425049 1704.7229 C 1425.301758 1704.7229 1451.143066 1730.564087 1451.143066 1762.440918 Z"/>
            <path id="path4" fill="#FFFFFF" stroke="none" d="M 1621.672485 1752.829346 L 1621.672485 2030.268799 L 1390.619629 2030.268799 C 1415.731445 2030.268799 1438.976318 2022.267212 1457.933228 2008.665283 C 1457.953735 2008.644775 1457.974243 2008.644775 1457.994873 2008.603638 C 1487.168579 1987.65686 1506.187134 1953.456543 1506.228271 1914.804077 L 1506.228271 1753.198486 C 1506.228271 1663.953369 1433.888428 1591.613525 1344.643311 1591.613525 L 1207.144165 1590.587769 L 1135.748047 1590.054321 C 1091.022705 1590.054321 1050.524048 1608.190796 1021.20636 1637.487793 C 991.909302 1666.80542 973.773376 1707.303833 973.773376 1752.029419 C 973.773376 1808.48938 1002.659729 1858.200317 1046.4823 1887.168945 C 1047.159546 1887.620239 1047.836182 1888.071411 1048.513428 1888.522705 C 1072.640503 1904.320557 1101.239746 1913.819336 1131.9729 1914.721924 L 1132.342041 1914.721924 C 1132.280884 1914.742432 1132.19873 1914.783447 1132.137207 1914.804077 C 1120.627319 1914.804077 1109.097534 1914.947754 1097.587891 1915.13269 C 1065.213867 1915.624512 957.27832 1912.505981 898.273987 1851.81958 C 898.273987 1851.799194 898.253418 1851.799194 898.23291 1851.778564 C 879.788879 1832.80127 866.145386 1808.181763 861.098572 1776.299683 C 859.62146 1766.903687 858.883118 1756.871094 858.985779 1746.141113 C 860.524475 1681.105225 884.446167 1621.587891 923.344604 1575.057007 C 928.679016 1568.676636 934.279846 1562.521851 940.167725 1556.654053 C 990.370544 1506.430542 1059.715088 1475.390015 1136.343018 1475.390015 L 1344.233032 1475.390015 C 1497.467773 1475.390015 1621.672485 1599.594116 1621.672485 1752.829346 Z"/>
        </g>
    </g>
</svg>
